<svg xmlns="http://www.w3.org/2000/svg" viewBox="0 0 768 768" style="background: radial-gradient(ellipse at top left, #1a0b3d 0%, #0f0728 50%, #000000 100%);">
  <defs>
    <radialGradient id="wave1" cx="20%" cy="80%" r="60%">
      <stop offset="0%" style="stop-color:#a855f7;stop-opacity:0.9" />
      <stop offset="30%" style="stop-color:#8b5cf6;stop-opacity:0.8" />
      <stop offset="60%" style="stop-color:#7c3aed;stop-opacity:0.6" />
      <stop offset="100%" style="stop-color:#6d28d9;stop-opacity:0.3" />
    </radialGradient>
    <radialGradient id="wave2" cx="80%" cy="20%" r="50%">
      <stop offset="0%" style="stop-color:#ec4899;stop-opacity:0.8" />
      <stop offset="30%" style="stop-color:#db2777;stop-opacity:0.7" />
      <stop offset="60%" style="stop-color:#be185d;stop-opacity:0.5" />
      <stop offset="100%" style="stop-color:#9d174d;stop-opacity:0.2" />
    </radialGradient>
    <linearGradient id="accent" x1="0%" y1="0%" x2="100%" y2="100%">
      <stop offset="0%" style="stop-color:#06b6d4;stop-opacity:0.6" />
      <stop offset="50%" style="stop-color:#3b82f6;stop-opacity:0.4" />
      <stop offset="100%" style="stop-color:#8b5cf6;stop-opacity:0.3" />
    </linearGradient>
  </defs>
  
  <!-- Main flowing wave shape -->
  <path d="M0,400 Q150,200 300,350 T600,300 Q700,250 768,400 L768,768 L0,768 Z" fill="url(#wave1)" opacity="0.9"/>
  
  <!-- Secondary wave for depth -->
  <path d="M768,200 Q600,100 450,250 T150,200 Q50,150 0,300 L0,0 L768,0 Z" fill="url(#wave2)" opacity="0.8"/>
  
  <!-- Accent gradient overlay -->
  <path d="M200,500 Q350,300 500,450 Q650,350 768,500 L768,600 Q650,400 500,550 Q350,400 200,600 Z" fill="url(#accent)" opacity="0.4"/>
  
  <!-- Flowing curves for additional depth -->
  <ellipse cx="150" cy="600" rx="200" ry="100" fill="url(#wave1)" opacity="0.3" transform="rotate(-15 150 600)"/>
  <ellipse cx="600" cy="150" rx="180" ry="80" fill="url(#wave2)" opacity="0.4" transform="rotate(25 600 150)"/>
</svg>